<?xml version="1.0" standalone="no"?><!DOCTYPE svg PUBLIC "-//W3C//DTD SVG 1.1//EN" "http://www.w3.org/Graphics/SVG/1.1/DTD/svg11.dtd"><svg t="1493818971543" class="icon" style="" viewBox="0 0 1803 1024" version="1.1" xmlns="http://www.w3.org/2000/svg" p-id="5123" xmlns:xlink="http://www.w3.org/1999/xlink" width="352.1484375" height="200" fill="#bbb"><defs><style type="text/css"></style></defs><path d="M81.92 293.6832l446.83264 0c14.58176 0 43.04896 11.91936 53.16608 22.15936l77.824 79.01184c27.77088 28.18048 73.15456 28.54912 101.376 0.73728C789.2992 367.8208 789.62688 322.43712 761.856 294.25664l-77.824-79.01184c-37.02784-37.60128-102.31808-64.9216-155.27936-64.9216L81.92 150.3232c-39.56736 0-71.68 32.07168-71.68 71.68C10.24 261.61152 42.35264 293.6832 81.92 293.6832z" p-id="5124"></path><path d="M1358.31552 293.6832l127.71328 0L1486.0288 380.928c0 22.24128 15.36 30.72 34.28352 18.06336l257.67936-171.95008c19.00544-12.6976 18.92352-33.13664 0-45.79328l-257.67936-171.95008c-19.00544-12.6976-34.28352-4.54656-34.28352 18.06336l0 122.92096-127.71328 0c-109.64992 0-253.05088 60.0064-329.76896 137.95328l-369.37728 375.11168c-49.84832 50.62656-156.38528 95.15008-227.61472 95.15008L81.92 758.49728c-39.56736 0-71.68 32.11264-71.68 71.68s32.11264 71.68 71.68 71.68l349.67552 0c109.568 0 252.928-59.92448 329.76896-137.95328l369.37728-375.11168C1180.4672 338.28864 1287.08608 293.6832 1358.31552 293.6832z" p-id="5125"></path><path d="M1520.35328 623.73888c-19.00544-12.6976-34.28352-4.54656-34.28352 18.06336l0 116.736-236.87168 0c-14.1312 0-41.45152-11.42784-51.28192-21.38112l-76.43136-77.53728c-27.81184-28.18048-73.19552-28.50816-101.376-0.73728-28.18048 27.81184-28.50816 73.19552-0.73728 101.376l76.43136 77.53728c36.78208 37.31456 100.88448 64.1024 153.35424 64.1024l236.87168 0L1486.0288 995.328c0 22.24128 15.36 30.72 34.28352 18.06336l257.67936-171.95008c19.00544-12.6976 18.92352-33.13664 0-45.79328L1520.35328 623.73888z" p-id="5126"></path></svg>